<svg width="25" height="25" viewBox="0 0 25 25" fill="none" xmlns="http://www.w3.org/2000/svg">
<path d="M16.69 2.5H8.31C4.67 2.5 2.5 4.67 2.5 8.31V16.68C2.5 20.33 4.67 22.5 8.31 22.5H16.68C20.32 22.5 22.49 20.33 22.49 16.69V8.31C22.5 4.67 20.33 2.5 16.69 2.5ZM10.41 16.69C10.41 17.33 9.89 17.85 9.24 17.85C8.6 17.85 8.08 17.33 8.08 16.69V13.43C8.08 12.79 8.6 12.27 9.24 12.27C9.89 12.27 10.41 12.79 10.41 13.43V16.69ZM16.92 16.69C16.92 17.33 16.4 17.85 15.76 17.85C15.11 17.85 14.59 17.33 14.59 16.69V8.31C14.59 7.67 15.11 7.15 15.76 7.15C16.4 7.15 16.92 7.67 16.92 8.31V16.69Z" fill="#42A6ED"/>
</svg>
