<svg width="217" height="94" viewBox="0 0 217 94" fill="none" xmlns="http://www.w3.org/2000/svg">
<g opacity="0.2">
<path d="M8.11415 102.377C7.72157 102.326 7.34793 102.129 7.07858 101.813C6.54175 101.166 6.6484 100.233 7.32027 99.7289L64.6649 57.1023C65.2546 56.6613 66.089 56.7256 66.6448 57.2269L90.2352 78.76L142.569 43.1591C143.123 42.7725 143.897 42.8437 144.396 43.323L167.266 64.9397L209.601 30.7297C210.195 30.2596 211.069 30.3586 211.552 30.9688C212.049 31.5809 211.964 32.4575 211.385 32.9295L168.135 67.9227C167.589 68.3694 166.781 68.3235 166.255 67.8259L143.318 46.1561L91.0089 81.7898C90.4249 82.1872 89.6505 82.116 89.12 81.6475L65.5675 60.1638L9.29052 102.086C8.94732 102.337 8.51937 102.444 8.11415 102.377Z" fill="#D8DEE8"/>
<path d="M65.7253 52.6574C62.366 52.3385 59.4738 54.5656 59.2671 57.6305C59.0604 60.6954 61.6052 63.4084 64.9664 63.7128C68.313 64.0152 71.1907 61.7862 71.3955 58.7359C71.6149 55.6874 69.07 52.9744 65.7253 52.6574Z" fill="#AABBCC"/>
<path d="M90.2185 75.0623C86.9136 74.7801 84.0669 76.9983 83.8494 80.0322C83.6465 83.068 86.1515 85.7462 89.4564 86.0285C92.7468 86.3088 95.5954 84.076 95.7964 81.0548C96.0139 78.0209 93.5234 75.3446 90.2185 75.0623Z" fill="#AABBCC"/>
<path d="M167.695 60.6003C164.539 60.3078 161.818 62.4685 161.61 65.4297C161.402 68.3909 163.795 71.0248 166.952 71.3027C170.095 71.5787 172.802 69.4161 173.008 66.4695C173.228 63.5248 170.85 60.8927 167.695 60.6003Z" fill="#AABBCC"/>
<path d="M215.755 32.3342C215.957 29.4167 213.652 26.7941 210.589 26.4694C207.526 26.1447 204.856 28.2528 204.652 31.1849C204.448 34.117 206.768 36.7415 209.847 37.0535C212.912 37.3637 215.552 35.2517 215.755 32.3342Z" fill="#AABBCC"/>
<path d="M143.523 38.8625C140.326 38.5499 137.561 40.7049 137.349 43.6951C137.138 46.6854 139.57 49.3541 142.767 49.6668C145.965 49.9794 148.717 47.808 148.912 44.8304C149.122 41.8547 146.706 39.1733 143.523 38.8625Z" fill="#AABBCC"/>
</g>
</svg>
