<svg width="24" height="24" viewBox="0 0 24 24" fill="none" xmlns="http://www.w3.org/2000/svg">
<g clip-path="url(#clip0_2197_925)">
<mask id="mask0_2197_925" style="mask-type:luminance" maskUnits="userSpaceOnUse" x="0" y="0" width="24" height="24">
<path d="M0 1.90735e-06H24V24H0V1.90735e-06Z" fill="white"/>
</mask>
<g mask="url(#mask0_2197_925)">
<path d="M16.9082 5.36622C16.9082 8.071 14.7155 10.2637 12.0107 10.2637C9.30595 10.2637 7.11328 8.071 7.11328 5.36622C7.11328 2.66144 9.30595 0.468766 12.0107 0.468766C14.7155 0.468766 16.9082 2.66144 16.9082 5.36622Z" stroke="#6BC0E2" stroke-width="0.9375" stroke-miterlimit="10" stroke-linecap="round" stroke-linejoin="round"/>
<path d="M23.1476 13.2611L18.7278 15.0681C18.559 14.3673 18.0715 13.7716 17.3923 13.4753L16.751 13.195C13.7487 11.8844 10.3367 11.883 7.33338 13.1921L6.68041 13.4767C5.99557 13.7753 5.50525 14.3781 5.33978 15.0859L0.854316 13.2606C0.461973 13.1008 0.461973 12.5453 0.854316 12.385L8.86338 9.11777C9.71463 9.83308 10.8129 10.2639 12.0115 10.2639C13.2063 10.2639 14.3013 9.83547 15.1517 9.12438L23.1476 12.3859C23.5394 12.5463 23.5394 13.1008 23.1476 13.2611Z" stroke="#6BC0E2" stroke-width="0.9375" stroke-miterlimit="10" stroke-linecap="round" stroke-linejoin="round"/>
<path d="M18.7925 9.96356V18.2578" stroke="#6BC0E2" stroke-width="0.9375" stroke-miterlimit="10" stroke-linecap="round" stroke-linejoin="round"/>
<path d="M18.792 21.5137C18.1399 21.5137 17.6113 20.9851 17.6113 20.333V19.4374C17.6113 18.7854 18.1399 18.2568 18.792 18.2568C19.444 18.2568 19.9726 18.7854 19.9726 19.4374V20.333C19.9726 20.9851 19.444 21.5137 18.792 21.5137Z" stroke="#6BC0E2" stroke-width="0.9375" stroke-miterlimit="10" stroke-linecap="round" stroke-linejoin="round"/>
<path d="M19.9545 23.5312H17.6319C17.6319 23.5312 17.6159 22.4986 18.2699 21.3923C18.4273 21.4706 18.6055 21.5147 18.7934 21.5147C18.9814 21.5147 19.1591 21.4706 19.317 21.3923C19.9705 22.4986 19.9545 23.5312 19.9545 23.5312Z" stroke="#6BC0E2" stroke-width="0.9375" stroke-miterlimit="10" stroke-linecap="round" stroke-linejoin="round"/>
<path d="M14.1087 19.0894C14.5905 19.1756 15.0684 19.2917 15.5392 19.4385C16.235 19.6773 16.922 19.941 17.6111 20.1983V19.4371C17.6111 18.7851 18.1393 18.2563 18.7913 18.2563V15.6144C18.7913 14.6854 18.2415 13.8449 17.3908 13.4736L16.7495 13.1934C13.7472 11.8827 10.3351 11.8813 7.33186 13.1905L6.67889 13.4751C5.82764 13.8463 5.27686 14.6873 5.27686 15.6163V20.6465C6.35864 20.237 7.43653 19.7969 8.53607 19.4376C9.01378 19.2888 9.49865 19.1717 9.98761 19.0852" stroke="#6BC0E2" stroke-width="0.9375" stroke-miterlimit="10" stroke-linecap="round" stroke-linejoin="round"/>
<path d="M9.98761 19.0858C9.49865 19.1723 9.01378 19.2894 8.53607 19.4382C7.43667 19.798 6.35845 20.2371 5.27686 20.6471L8.39076 21.9924C10.75 23.0114 13.4261 23.0035 15.7787 21.9703L17.8586 21.0568C17.7034 20.8571 17.6111 20.6059 17.6111 20.333V20.1989C16.9221 19.9416 16.2354 19.6766 15.5392 19.4391C15.0684 19.2923 14.5905 19.1763 14.1087 19.0901" stroke="#6BC0E2" stroke-width="0.9375" stroke-miterlimit="10" stroke-linecap="round" stroke-linejoin="round"/>
<path d="M13.138 3.01816C13.138 3.01816 12.5423 2.46869 11.6241 2.74535C10.781 2.99931 10.5256 4.10505 11.1445 4.60225C11.4705 4.8641 11.9685 5.07245 12.6356 5.30824C14.1288 5.83605 13.5768 7.94172 12.058 7.95189C11.4652 7.95583 11.1882 7.91819 10.6675 7.57759" stroke="#6BC0E2" stroke-width="0.9375" stroke-miterlimit="10" stroke-linecap="round" stroke-linejoin="round"/>
<path d="M12.0586 2.1661V8.54785" stroke="#6BC0E2" stroke-width="0.9375" stroke-miterlimit="10" stroke-linecap="round" stroke-linejoin="round"/>
</g>
</g>
<defs>
<clipPath id="clip0_2197_925">
<rect width="24" height="24" fill="white"/>
</clipPath>
</defs>
</svg>
