<svg width="24" height="24" viewBox="0 0 24 24" fill="none" xmlns="http://www.w3.org/2000/svg">
<path d="M18.8 12.8204V6.332C18.7996 6.16671 18.765 6.0033 18.6984 5.852C18.6944 5.8424 18.6884 5.8344 18.684 5.8256C18.6256 5.69785 18.5453 5.58129 18.4468 5.4812L15.72 2.7532C15.6199 2.65466 15.5034 2.57438 15.3756 2.516C15.3668 2.5116 15.3588 2.5056 15.3492 2.5016C15.1975 2.43488 15.0337 2.40028 14.868 2.4H9.6V1.2C9.6 0.537258 9.06274 0 8.4 0H1.2C0.537258 0 0 0.537258 0 1.2V11.6C0 12.2627 0.537258 12.8 1.2 12.8H4.4V20.4C4.4 21.0627 4.93726 21.6 5.6 21.6H13.8108C15.3002 23.7397 18.0698 24.5676 20.4891 23.5962C22.9084 22.6249 24.3366 20.1117 23.9329 17.5361C23.5292 14.9605 21.4005 13.0049 18.8 12.8204ZM17.4344 5.6H16C15.7791 5.6 15.6 5.42091 15.6 5.2V3.7656L17.4344 5.6ZM0.8 11.6V1.2C0.8 0.979086 0.979086 0.8 1.2 0.8H8.4C8.62091 0.8 8.8 0.979086 8.8 1.2V11.6C8.8 11.8209 8.62091 12 8.4 12H1.2C0.979086 12 0.8 11.8209 0.8 11.6ZM5.6 20.8C5.37909 20.8 5.2 20.6209 5.2 20.4V12.8H8.4C9.06274 12.8 9.6 12.2627 9.6 11.6V3.2H14.8V5.2C14.8 5.86274 15.3373 6.4 16 6.4H18V12.8204C16.1543 12.9466 14.4912 13.9792 13.5594 15.5774C12.6277 17.1756 12.5485 19.1317 13.348 20.8H5.6ZM18.4 23.2C15.749 23.2 13.6 21.051 13.6 18.4C13.6 15.749 15.749 13.6 18.4 13.6C21.051 13.6 23.2 15.749 23.2 18.4C23.1971 21.0498 21.0498 23.1971 18.4 23.2Z" fill="#6A45DC"/>
<path d="M2.4001 6.39961H7.2001C7.64193 6.39961 8.0001 6.04144 8.0001 5.59961V2.39961C8.0001 1.95778 7.64193 1.59961 7.2001 1.59961H2.4001C1.95827 1.59961 1.6001 1.95778 1.6001 2.39961V5.59961C1.6001 6.04144 1.95827 6.39961 2.4001 6.39961ZM2.4001 2.39961H7.2001V5.59961H2.4001V2.39961Z" fill="#6A45DC"/>
<path d="M19.6 16.8004C19.6 17.0213 19.779 17.2004 20 17.2004C20.2209 17.2004 20.4 17.0213 20.4 16.8004C20.3988 15.8504 19.7305 15.0318 18.8 14.8404V14.8004C18.8 14.5795 18.6209 14.4004 18.4 14.4004C18.179 14.4004 18 14.5795 18 14.8004V14.8404C17.0678 15.0297 16.3979 15.8492 16.3979 16.8004C16.3979 17.7515 17.0678 18.5711 18 18.7604V21.1272C17.5221 20.9582 17.2019 20.5073 17.2 20.0004C17.2 19.7795 17.0209 19.6004 16.8 19.6004C16.579 19.6004 16.4 19.7795 16.4 20.0004C16.4012 20.9504 17.0694 21.769 18 21.9604V22.0004C18 22.2213 18.179 22.4004 18.4 22.4004C18.6209 22.4004 18.8 22.2213 18.8 22.0004V21.9604C19.7321 21.7711 20.402 20.9515 20.402 20.0004C20.402 19.0492 19.7321 18.2297 18.8 18.0404V15.674C19.2777 15.8429 19.5979 16.2937 19.6 16.8004ZM17.2 16.8004C17.2021 16.2937 17.5222 15.8429 18 15.674V17.9268C17.5222 17.7579 17.2021 17.3071 17.2 16.8004ZM19.6 20.0004C19.5979 20.5071 19.2777 20.9579 18.8 21.1268V18.874C19.2777 19.0429 19.5979 19.4937 19.6 20.0004Z" fill="#6A45DC"/>
<path d="M2.8001 7.2002H2.0001C1.77918 7.2002 1.6001 7.37928 1.6001 7.6002C1.6001 7.82111 1.77918 8.0002 2.0001 8.0002H2.8001C3.02101 8.0002 3.2001 7.82111 3.2001 7.6002C3.2001 7.37928 3.02101 7.2002 2.8001 7.2002Z" fill="#6A45DC"/>
<path d="M2.8001 8.7998H2.0001C1.77918 8.7998 1.6001 8.97889 1.6001 9.1998C1.6001 9.42072 1.77918 9.5998 2.0001 9.5998H2.8001C3.02101 9.5998 3.2001 9.42072 3.2001 9.1998C3.2001 8.97889 3.02101 8.7998 2.8001 8.7998Z" fill="#6A45DC"/>
<path d="M2.8001 10.4004H2.0001C1.77918 10.4004 1.6001 10.5795 1.6001 10.8004C1.6001 11.0213 1.77918 11.2004 2.0001 11.2004H2.8001C3.02101 11.2004 3.2001 11.0213 3.2001 10.8004C3.2001 10.5795 3.02101 10.4004 2.8001 10.4004Z" fill="#6A45DC"/>
<path d="M5.2 7.2002H4.4C4.17909 7.2002 4 7.37928 4 7.6002C4 7.82111 4.17909 8.0002 4.4 8.0002H5.2C5.42091 8.0002 5.6 7.82111 5.6 7.6002C5.6 7.37928 5.42091 7.2002 5.2 7.2002Z" fill="#6A45DC"/>
<path d="M5.2 8.7998H4.4C4.17909 8.7998 4 8.97889 4 9.1998C4 9.42072 4.17909 9.5998 4.4 9.5998H5.2C5.42091 9.5998 5.6 9.42072 5.6 9.1998C5.6 8.97889 5.42091 8.7998 5.2 8.7998Z" fill="#6A45DC"/>
<path d="M5.6 10.8004C5.6 10.5795 5.42091 10.4004 5.2 10.4004H4.4C4.17909 10.4004 4 10.5795 4 10.8004C4 11.0213 4.17909 11.2004 4.4 11.2004H5.2C5.42091 11.2004 5.6 11.0213 5.6 10.8004Z" fill="#6A45DC"/>
<path d="M7.5999 7.2002H6.7999C6.57899 7.2002 6.3999 7.37928 6.3999 7.6002C6.3999 7.82111 6.57899 8.0002 6.7999 8.0002H7.5999C7.82082 8.0002 7.9999 7.82111 7.9999 7.6002C7.9999 7.37928 7.82082 7.2002 7.5999 7.2002Z" fill="#6A45DC"/>
<path d="M7.5999 8.7998H6.7999C6.57899 8.7998 6.3999 8.97889 6.3999 9.1998C6.3999 9.42072 6.57899 9.5998 6.7999 9.5998H7.5999C7.82082 9.5998 7.9999 9.42072 7.9999 9.1998C7.9999 8.97889 7.82082 8.7998 7.5999 8.7998Z" fill="#6A45DC"/>
<path d="M7.5999 10.4004H6.7999C6.57899 10.4004 6.3999 10.5795 6.3999 10.8004C6.3999 11.0213 6.57899 11.2004 6.7999 11.2004H7.5999C7.82082 11.2004 7.9999 11.0213 7.9999 10.8004C7.9999 10.5795 7.82082 10.4004 7.5999 10.4004Z" fill="#6A45DC"/>
<path d="M11.1998 8.8H16.3998C16.6207 8.8 16.7998 8.62091 16.7998 8.4C16.7998 8.17909 16.6207 8 16.3998 8H11.1998C10.9789 8 10.7998 8.17909 10.7998 8.4C10.7998 8.62091 10.9789 8.8 11.1998 8.8Z" fill="#6A45DC"/>
<path d="M11.1998 10.8H16.3998C16.6207 10.8 16.7998 10.6209 16.7998 10.4C16.7998 10.1791 16.6207 10 16.3998 10H11.1998C10.9789 10 10.7998 10.1791 10.7998 10.4C10.7998 10.6209 10.9789 10.8 11.1998 10.8Z" fill="#6A45DC"/>
<path d="M11.1998 12.8H16.3998C16.6207 12.8 16.7998 12.6209 16.7998 12.4C16.7998 12.1791 16.6207 12 16.3998 12H11.1998C10.9789 12 10.7998 12.1791 10.7998 12.4C10.7998 12.6209 10.9789 12.8 11.1998 12.8Z" fill="#6A45DC"/>
<path d="M12.3999 14H6.7999C6.57899 14 6.3999 14.1791 6.3999 14.4C6.3999 14.6209 6.57899 14.8 6.7999 14.8H12.3999C12.6208 14.8 12.7999 14.6209 12.7999 14.4C12.7999 14.1791 12.6208 14 12.3999 14Z" fill="#6A45DC"/>
<path d="M11.5999 16H6.7999C6.57899 16 6.3999 16.1791 6.3999 16.4C6.3999 16.6209 6.57899 16.8 6.7999 16.8H11.5999C11.8208 16.8 11.9999 16.6209 11.9999 16.4C11.9999 16.1791 11.8208 16 11.5999 16Z" fill="#6A45DC"/>
<path d="M11.1999 18H6.7999C6.57899 18 6.3999 18.1791 6.3999 18.4C6.3999 18.6209 6.57899 18.8 6.7999 18.8H11.1999C11.4208 18.8 11.5999 18.6209 11.5999 18.4C11.5999 18.1791 11.4208 18 11.1999 18Z" fill="#6A45DC"/>
</svg>
