<svg width="24" height="24" viewBox="0 0 24 24" fill="none" xmlns="http://www.w3.org/2000/svg">
<g clip-path="url(#clip0_2197_5528)">
<path d="M11.0746 16.2778C11.2579 16.0945 11.2579 15.7979 11.0746 15.6146C10.8911 15.4319 10.5939 15.4319 10.4103 15.6146C10.2272 15.7979 10.2272 16.0945 10.4103 16.2778C10.5939 16.4605 10.8911 16.4605 11.0746 16.2778Z" fill="#96AD5C"/>
<path d="M8.85107 5.15479C8.85107 7.99714 11.168 10.3098 14.0159 10.3098C16.8639 10.3098 19.1808 7.99714 19.1808 5.15479C19.1808 2.31244 16.8639 0 14.0159 0C11.168 0 8.85107 2.31244 8.85107 5.15479ZM18.2419 5.15479C18.2419 7.48041 16.3461 9.37244 14.0159 9.37244C11.6858 9.37244 9.79004 7.48041 9.79004 5.15479C9.79004 2.82935 11.6858 0.937317 14.0159 0.937317C16.3461 0.937317 18.2419 2.82935 18.2419 5.15479Z" fill="#96AD5C"/>
<path d="M5.43172 23.8611C5.61372 24.0442 5.91001 24.0462 6.09439 23.8649L8.37081 21.6266C8.75755 21.2407 8.87515 20.6692 8.70508 20.1724L9.19475 19.7011C9.45838 19.447 9.8055 19.3069 10.1724 19.3069H16.4144C17.5218 19.3069 18.5685 18.8824 19.3619 18.1117C19.3946 18.0801 19.1141 18.4098 23.6203 13.0346C24.2887 12.2454 24.1887 11.0604 23.3972 10.3926C22.6107 9.73101 21.4325 9.82604 20.7623 10.6017L17.9917 13.4438C17.6418 13.0141 17.1083 12.7462 16.5318 12.7462H11.296C10.5509 12.4351 9.76037 12.2776 8.94469 12.2776C6.68368 12.2776 4.70942 13.3199 3.64992 15.274C3.20355 15.1896 2.73279 15.3243 2.39411 15.6623L0.160439 17.8982C-0.0219236 18.0808 -0.0222905 18.3762 0.159706 18.5593L5.43172 23.8611ZM8.9445 13.2148C9.66368 13.2148 10.359 13.3592 11.0116 13.6442C11.071 13.6702 11.1351 13.6835 11.1998 13.6835H16.5318C17.0409 13.6835 17.471 14.0979 17.471 14.6207C17.471 15.1376 17.0497 15.558 16.5318 15.558H12.7009C12.4417 15.558 12.2314 15.7678 12.2314 16.0265C12.2314 16.2855 12.4417 16.4951 12.7009 16.4951H16.5318C17.5675 16.4951 18.4099 15.6543 18.4099 14.6207C18.4099 14.5383 18.4041 14.4566 18.3934 14.3757C21.0737 11.626 21.4516 11.2396 21.4677 11.2204C21.8024 10.8262 22.3964 10.7762 22.7916 11.1087C23.1872 11.4425 23.2372 12.035 22.9017 12.4314L18.6903 17.4562C18.0753 18.0455 17.2679 18.3697 16.4144 18.3697H10.1724C9.56076 18.3697 8.98175 18.6032 8.54253 19.0267L8.1435 19.4111L4.46505 15.74C5.32476 14.1303 6.93796 13.2148 8.9445 13.2148ZM3.05862 16.3246C3.21346 16.1701 3.45123 16.1423 3.64001 16.2587C3.72129 16.3082 3.48792 16.0961 7.70686 20.301C7.89454 20.4883 7.88445 20.7867 7.70942 20.9614L5.76874 22.8696L1.15518 18.2298L3.05862 16.3246Z" fill="#96AD5C"/>
<path d="M13.4521 2.34277V2.89191C12.9055 3.08527 12.5129 3.6062 12.5129 4.21723C12.5129 4.99231 13.1448 5.62311 13.9216 5.62311C14.1804 5.62311 14.391 5.83331 14.391 6.09168C14.391 6.35004 14.1804 6.56024 13.9216 6.56024C13.721 6.56024 13.5044 6.43445 13.3119 6.20575C13.145 6.00763 12.8488 5.98218 12.6503 6.14862C12.4518 6.31525 12.4261 6.61078 12.5931 6.8089C12.8441 7.10681 13.1393 7.31446 13.4521 7.41919V7.96613C13.4521 8.22504 13.6623 8.43469 13.9216 8.43469C14.1808 8.43469 14.391 8.22504 14.391 7.96613V7.41699C14.9376 7.22345 15.3302 6.70252 15.3302 6.09168C15.3302 5.31641 14.6983 4.68579 13.9216 4.68579C13.6627 4.68579 13.4521 4.47559 13.4521 4.21723C13.4521 3.95886 13.6627 3.74847 13.9216 3.74847C14.088 3.74847 14.2635 3.83325 14.4294 3.99347C14.6158 4.17346 14.913 4.16852 15.0933 3.98267C15.2737 3.79663 15.2687 3.5 15.0825 3.32001C14.8442 3.08984 14.6057 2.95966 14.391 2.88861V2.34277C14.391 2.08386 14.1808 1.87402 13.9216 1.87402C13.6623 1.87402 13.4521 2.08386 13.4521 2.34277Z" fill="#96AD5C"/>
</g>
<defs>
<clipPath id="clip0_2197_5528">
<rect width="24" height="24" fill="white"/>
</clipPath>
</defs>
</svg>
