<svg width="24" height="24" viewBox="0 0 24 24" fill="none" xmlns="http://www.w3.org/2000/svg">
<g clip-path="url(#clip0_2197_5992)">
<path d="M16.0293 15.3921C15.4607 15.3921 14.998 14.9917 14.998 14.4996C14.998 14.0074 15.4607 13.607 16.0293 13.607C16.5979 13.607 17.0605 14.0074 17.0605 14.4996C17.0605 14.7584 17.2704 14.9683 17.5293 14.9683C17.7881 14.9683 17.998 14.7584 17.998 14.4996C17.998 13.6406 17.358 12.9183 16.498 12.7223V12.4785C16.498 12.2197 16.2881 12.0098 16.0293 12.0098C15.7704 12.0098 15.5605 12.2197 15.5605 12.4785V12.7223C14.7006 12.9183 14.0605 13.6406 14.0605 14.4996C14.0605 15.5086 14.9437 16.3296 16.0293 16.3296C16.5979 16.3296 17.0605 16.73 17.0605 17.2222C17.0605 17.7144 16.5979 18.1148 16.0293 18.1148C15.4607 18.1148 14.998 17.7144 14.998 17.2222C14.998 16.9634 14.7881 16.7535 14.5293 16.7535C14.2705 16.7535 14.0605 16.9634 14.0605 17.2222C14.0605 18.0812 14.7006 18.8034 15.5605 18.9995V19.202C15.5605 19.4608 15.7704 19.6707 16.0293 19.6707C16.2881 19.6707 16.498 19.4608 16.498 19.202V18.9995C17.358 18.8034 17.998 18.0812 17.998 17.2222C17.998 16.2131 17.1149 15.3921 16.0293 15.3921Z" fill="#EA9F45"/>
<path d="M21.1633 12.6039C20.551 11.6497 19.6883 10.8862 18.6686 10.396C18.4352 10.2838 18.1551 10.3821 18.043 10.6154C17.9308 10.8487 18.029 11.1288 18.2624 11.2409C20.0394 12.0952 21.1876 13.9205 21.1876 15.891C21.1876 16.7342 20.9798 17.5704 20.5866 18.3093C20.4651 18.5378 20.5517 18.8217 20.7803 18.9433C20.8504 18.9806 20.9258 18.9983 21 18.9983C21.1678 18.9983 21.33 18.908 21.4143 18.7497C21.8793 17.8757 22.1251 16.8872 22.1251 15.891C22.1251 14.721 21.7925 13.5843 21.1633 12.6039Z" fill="#EA9F45"/>
<path d="M16.7659 9.79692L16.7344 9.79688C16.4755 9.79688 16.2656 10.0067 16.2656 10.2656C16.2656 10.5245 16.4755 10.7344 16.7344 10.7344L16.7615 10.7344C16.7623 10.7344 16.763 10.7344 16.7638 10.7344C17.0216 10.7344 17.2312 10.526 17.2325 10.2679C17.2336 10.009 17.0248 9.79814 16.7659 9.79692Z" fill="#EA9F45"/>
<path d="M13.8002 20.5406C12.0232 19.6863 10.875 17.861 10.875 15.8905C10.875 15.0473 11.0828 14.2111 11.476 13.4722C11.5976 13.2437 11.5109 12.9598 11.2823 12.8382C11.0539 12.7166 10.7699 12.8033 10.6484 13.0319C10.1833 13.9058 9.9375 14.8943 9.9375 15.8905C9.9375 17.0605 10.2701 18.1972 10.8993 19.1776C11.5116 20.1318 12.3743 20.8953 13.3941 21.3855C13.4595 21.417 13.5287 21.4319 13.5968 21.4319C13.7714 21.4319 13.9389 21.334 14.0196 21.1662C14.1317 20.9328 14.0336 20.6527 13.8002 20.5406Z" fill="#EA9F45"/>
<path d="M15.3281 21.047L15.3009 21.0469C15.0409 21.0464 14.8313 21.2545 14.8301 21.5134C14.8289 21.7723 15.0378 21.9832 15.2967 21.9844L15.3281 21.9845C15.5869 21.9845 15.7968 21.7746 15.7968 21.5157C15.7968 21.2569 15.5869 21.047 15.3281 21.047Z" fill="#EA9F45"/>
<path d="M18.1598 8.21098C18.1027 8.07505 18.0328 7.94694 17.9515 7.82811H19.1718C20.3608 7.82811 21.3281 6.8608 21.3281 5.67186C21.3281 4.48293 20.3608 3.51562 19.1718 3.51562H15.4181C15.6567 3.16865 15.7968 2.74889 15.7968 2.29687C15.7968 1.10794 14.8295 0.140625 13.6406 0.140625H2.15625C0.967311 0.140625 0 1.10794 0 2.29687C0 3.48581 0.967311 4.45312 2.15625 4.45312H5.90999C5.67135 4.80009 5.53124 5.21985 5.53124 5.67186C5.53124 6.12388 5.6713 6.54364 5.90999 6.89061H4.68749C3.49856 6.89061 2.53125 7.85792 2.53125 9.04686C2.53125 9.72968 2.85065 10.339 3.34757 10.7344C2.85065 11.1297 2.53125 11.739 2.53125 12.4219C2.53125 13.1047 2.85065 13.714 3.34757 14.1093C2.85065 14.5047 2.53125 15.114 2.53125 15.7968C2.53125 16.4797 2.85065 17.089 3.34757 17.4843C2.85065 17.8797 2.53125 18.489 2.53125 19.1718C2.53125 20.3608 3.49856 21.3281 4.68749 21.3281H10.2117C11.667 22.8847 13.7373 23.8594 16.0313 23.8594C20.4252 23.8594 24 20.2846 24 15.8906C24 12.2336 21.5236 9.1445 18.1598 8.21098ZM19.1718 4.45312C19.8439 4.45312 20.3906 4.99987 20.3906 5.67186C20.3906 6.34386 19.8439 6.89061 19.1718 6.89061H16.1718H7.68749C7.01544 6.89061 6.46874 6.34386 6.46874 5.67186C6.46874 4.99987 7.01544 4.45312 7.68749 4.45312H19.1718ZM2.15625 3.51562C1.4842 3.51562 0.937498 2.96887 0.937498 2.29687C0.937498 1.62487 1.4842 1.07812 2.15625 1.07812H13.6406C14.3126 1.07812 14.8593 1.62487 14.8593 2.29687C14.8593 2.96887 14.3126 3.51562 13.6406 3.51562H2.15625ZM4.68749 7.82811H16.1718C16.3607 7.82811 16.5415 7.87199 16.7036 7.95055C16.4819 7.93194 16.2578 7.92191 16.0313 7.92191C13.8307 7.92191 11.8357 8.81858 10.3923 10.2656H4.68749C4.01549 10.2656 3.46874 9.71886 3.46874 9.04686C3.46874 8.37486 4.01549 7.82811 4.68749 7.82811ZM4.68749 11.2031H9.59131C9.05919 11.9321 8.64777 12.7544 8.38648 13.6406H4.68749C4.01545 13.6406 3.46874 13.0939 3.46874 12.4219C3.46874 11.7499 4.01545 11.2031 4.68749 11.2031ZM4.68749 14.5781H8.17124C8.10013 15.0053 8.06253 15.4436 8.06253 15.8906C8.06253 16.2725 8.09014 16.648 8.14231 17.0156H4.68749C4.01545 17.0156 3.46874 16.4689 3.46874 15.7968C3.46874 15.1248 4.01545 14.5781 4.68749 14.5781ZM4.68749 20.3906C4.01545 20.3906 3.46874 19.8439 3.46874 19.1718C3.46874 18.4998 4.01545 17.9531 4.68749 17.9531H8.3337C8.57023 18.8349 8.95447 19.6568 9.45837 20.3906H4.68749ZM16.0313 22.9219C12.1542 22.9219 9.00003 19.7677 9.00003 15.8906C9.00003 12.0136 12.1542 8.85941 16.0313 8.85941C19.9083 8.85941 23.0625 12.0136 23.0625 15.8906C23.0625 19.7677 19.9083 22.9219 16.0313 22.9219Z" fill="#EA9F45"/>
</g>
<defs>
<clipPath id="clip0_2197_5992">
<rect width="24" height="24" fill="white"/>
</clipPath>
</defs>
</svg>
