<svg width="24" height="24" viewBox="0 0 24 24" fill="none" xmlns="http://www.w3.org/2000/svg">
<g clip-path="url(#clip0_2197_2408)">
<path d="M19.8049 12.6846C19.612 12.6846 19.4556 12.8409 19.4556 13.0338C19.4556 13.2784 19.2567 13.4773 19.0121 13.4773C18.7676 13.4773 18.5686 13.2784 18.5686 13.0338C18.5686 12.8409 18.4123 12.6846 18.2194 12.6846C18.0265 12.6846 17.8701 12.8409 17.8701 13.0338C17.8701 13.6636 18.3825 14.1759 19.0121 14.1759C19.6418 14.1759 20.1541 13.6635 20.1541 13.0338C20.1541 12.8409 19.9978 12.6846 19.8049 12.6846Z" fill="#F0604D"/>
<path d="M23.0833 12.7425L22.1003 12.4276C21.9743 12.3872 21.8751 12.2867 21.8348 12.1587C21.6277 11.5 21.315 10.8816 20.9055 10.3206C20.7189 10.0649 20.5114 9.82069 20.2847 9.58823C20.4298 8.952 20.5086 8.23195 20.4984 7.60987C20.4838 6.71995 20.3059 6.198 19.9547 6.01406C19.7656 5.91487 19.19 5.61356 16.0743 7.03978C16.0005 7.07353 15.9316 7.11511 15.8678 7.16273C15.6578 7.1063 15.4431 7.05408 15.2271 7.0072C15.2011 7.00153 15.1743 6.99652 15.1481 6.99098C15.4005 6.43945 15.548 5.84044 15.5757 5.22206C15.5843 5.02931 15.4351 4.86609 15.2423 4.85752C15.0501 4.84795 14.8864 4.99805 14.8778 5.1908C14.8323 6.20756 14.4105 7.16423 13.6902 7.88456C13.2599 8.31492 12.756 8.62753 12.2189 8.82441C11.2875 8.69372 10.3389 8.69372 9.40753 8.82441C8.87044 8.62753 8.36658 8.31492 7.93622 7.88456C7.16775 7.11609 6.74452 6.09436 6.74452 5.00756C6.74452 3.92072 7.16775 2.89903 7.93622 2.13056C8.70469 1.36205 9.72647 0.938812 10.8132 0.938812C11.9 0.938812 12.9218 1.36205 13.6902 2.13056C13.999 2.43938 14.2542 2.79178 14.4487 3.17789C14.5355 3.3502 14.7455 3.41958 14.9178 3.33277C15.0901 3.24605 15.1594 3.036 15.0727 2.86373C14.8447 2.41097 14.5458 1.99814 14.1842 1.63655C13.2838 0.736125 12.0866 0.240234 10.8133 0.240234C9.53991 0.240234 8.34272 0.736125 7.4423 1.63655C6.54187 2.53702 6.04598 3.73416 6.04598 5.00752C6.04598 6.28088 6.54187 7.47806 7.4423 8.37848C7.70203 8.63822 7.98459 8.86158 8.28347 9.0487C8.28356 9.0487 8.28366 9.04866 8.28375 9.04866C8.06658 9.10509 7.85105 9.16847 7.63791 9.23972C7.45495 9.30089 7.35623 9.49875 7.41741 9.68175C7.47853 9.8647 7.67648 9.96342 7.85939 9.9023C9.7642 9.2655 11.8623 9.2655 13.7671 9.9023C13.8039 9.91458 13.8412 9.92039 13.8779 9.92039C14.024 9.92039 14.1602 9.82795 14.2091 9.68175C14.2703 9.4988 14.1716 9.30089 13.9886 9.23972C13.7755 9.16847 13.56 9.10505 13.3428 9.04866C13.3429 9.04866 13.343 9.0487 13.3431 9.0487C13.642 8.86158 13.9245 8.63822 14.1842 8.37848C14.414 8.1487 14.6168 7.89778 14.793 7.63111C14.8892 7.64981 14.9848 7.66941 15.079 7.68984C15.2044 7.71708 15.3293 7.74633 15.453 7.77703C15.4492 7.79222 15.4452 7.80736 15.4419 7.82278C15.2716 8.63114 15.2827 9.34608 15.4748 9.94762C15.6475 10.4883 15.9592 10.9264 16.401 11.2497C16.9219 11.6307 17.5507 11.7952 18.1202 11.7952C18.5489 11.7952 18.9441 11.702 19.2344 11.5376C19.5627 11.3516 19.8377 10.9598 20.0555 10.3715C20.1561 10.489 20.2515 10.6093 20.3414 10.7325C20.706 11.2319 20.9843 11.7823 21.1686 12.3683C21.2768 12.7125 21.5455 12.9834 21.8873 13.0929L22.8703 13.4078C23.1283 13.4905 23.3016 13.7279 23.3016 13.9988V15.6288C23.3016 15.8997 23.1283 16.1371 22.8703 16.2197L21.2865 16.7271C21.033 16.8083 20.8186 16.9824 20.6826 17.2175C20.0603 18.2929 19.082 19.1828 17.7746 19.8625C17.6236 19.9411 17.519 20.0817 17.4875 20.2483L16.9802 22.9344C16.9662 23.0084 16.9013 23.0621 16.826 23.0621H15.1766C15.1013 23.0621 15.0365 23.0084 15.0225 22.9344L14.7415 21.4499C14.6862 21.1578 14.4122 20.9638 14.1174 21.0085C13.4069 21.1159 12.6748 21.1703 11.9415 21.1703C11.396 21.1703 10.8575 21.1399 10.3408 21.0799C10.0551 21.047 9.78891 21.2418 9.73552 21.5239L9.46852 22.9344C9.4545 23.0084 9.38967 23.0621 9.31434 23.0621H7.66495C7.58962 23.0621 7.5248 23.0084 7.51059 22.9333L7.02216 20.3963C6.9907 20.2328 6.88805 20.0939 6.74034 20.015C4.51172 18.8252 3.33375 16.8375 3.33375 14.2669C3.33375 12.9681 3.61791 11.8196 4.1783 10.8532C4.70123 9.95142 5.46502 9.20578 6.44841 8.63695C6.61537 8.54034 6.67242 8.32669 6.57586 8.15967C6.4793 7.9927 6.26564 7.93575 6.09863 8.03222C4.1918 9.13528 3.04172 10.837 2.72508 12.9984V12.9984C2.69147 12.9953 2.65781 12.9924 2.6243 12.989C2.63039 12.7558 2.5882 12.5205 2.49633 12.2921C2.29369 11.7884 1.87744 11.4248 1.43583 11.3659C1.08783 11.3193 0.756656 11.467 0.526828 11.7707C0.193594 12.211 0.247922 12.5595 0.352125 12.7743C0.528047 13.1368 0.98025 13.3932 1.73067 13.5544C1.71005 13.5853 1.68736 13.6163 1.66252 13.6475C1.21913 14.2035 0.69675 14.3265 0.357562 14.3381C0.159 14.3448 0 14.5042 0 14.7029V14.7046C0 14.9006 0.154641 15.0604 0.350437 15.0694C0.375516 15.0705 0.401719 15.0712 0.429 15.0712C0.858188 15.0712 1.54702 14.9129 2.2088 14.083C2.31328 13.9521 2.39841 13.8139 2.46384 13.6711C2.52975 13.6785 2.59308 13.6849 2.65373 13.6905C2.65373 13.6904 2.65373 13.6903 2.65378 13.6902C2.64188 13.8795 2.63527 14.0715 2.63527 14.2669C2.63527 15.7214 2.982 17.0182 3.66577 18.1215C4.29623 19.1386 5.19891 19.9715 6.34959 20.5979L6.82444 23.0642C6.9008 23.4677 7.25428 23.7606 7.66495 23.7606H9.31434C9.72502 23.7606 10.0785 23.4677 10.1549 23.0642L10.3963 21.7889C10.8976 21.842 11.4167 21.8689 11.9415 21.8689C12.6615 21.8689 13.3807 21.8187 14.0815 21.7197L14.336 23.0643C14.4124 23.4678 14.7659 23.7607 15.1765 23.7607H16.8259C17.2366 23.7607 17.5901 23.4678 17.6665 23.0641L18.1604 20.4489C19.5558 19.7111 20.6076 18.7418 21.2872 17.5673C21.3361 17.4826 21.4116 17.4205 21.4995 17.3924L23.0833 16.885C23.6316 16.7093 24 16.2045 24 15.6287V13.9987C24 13.4229 23.6316 12.9181 23.0833 12.7425ZM19.7474 8.59139C19.613 9.74105 19.2524 10.7245 18.89 10.9297C18.4782 11.163 17.5273 11.208 16.8134 10.6858C16.0987 10.163 15.8608 9.22275 16.1254 7.96678C16.152 7.84064 16.2416 7.73147 16.3651 7.67494C18.1137 6.8745 19.1219 6.6127 19.4964 6.6127C19.5529 6.6127 19.595 6.61866 19.623 6.62962C19.7355 6.74953 19.8831 7.43114 19.7474 8.59139ZM0.980672 12.4693C0.944531 12.3947 1.02984 12.2637 1.08394 12.1922C1.16967 12.0789 1.24866 12.0558 1.30833 12.0558C1.32094 12.0558 1.3327 12.0568 1.34348 12.0583C1.50408 12.0797 1.72908 12.2564 1.84828 12.5527C1.87636 12.6225 1.91283 12.738 1.92136 12.8821C1.43784 12.7819 1.06219 12.6375 0.980672 12.4693Z" fill="#F0604D"/>
<path d="M11.1523 4.6067V3.35683C11.5834 3.38762 11.7435 3.58464 11.8912 3.58464C12.076 3.58464 12.1622 3.35069 12.1622 3.23369C12.1622 2.93195 11.571 2.80267 11.1523 2.79034V2.62403C11.1523 2.55016 11.06 2.48242 10.9676 2.48242C10.8629 2.48242 10.789 2.55016 10.789 2.62403V2.80258C10.2041 2.86417 9.61911 3.17205 9.61911 3.94787C9.61911 4.73603 10.2349 4.9577 10.789 5.15472V6.6017C10.1609 6.55244 9.99472 6.12142 9.79152 6.12142C9.63758 6.12142 9.5083 6.32462 9.5083 6.47242C9.5083 6.77411 10.0255 7.18666 10.789 7.19898V7.38986C10.789 7.46373 10.8629 7.53147 10.9676 7.53147C11.06 7.53147 11.1523 7.46373 11.1523 7.38986V7.18052C11.8174 7.08812 12.273 6.66944 12.273 5.91208C12.273 5.0747 11.688 4.80372 11.1523 4.6067ZM10.826 4.48975C10.4996 4.36661 10.2349 4.23733 10.2349 3.88638C10.2349 3.56617 10.4811 3.41223 10.826 3.36916V4.48975ZM11.1154 6.58938V5.29019C11.4171 5.41947 11.6572 5.59187 11.6572 5.97977C11.6572 6.33081 11.4478 6.52783 11.1154 6.58938Z" fill="#F0604D"/>
</g>
<defs>
<clipPath id="clip0_2197_2408">
<rect width="24" height="24" fill="white"/>
</clipPath>
</defs>
</svg>
