<svg width="25" height="24" viewBox="0 0 25 24" fill="none" xmlns="http://www.w3.org/2000/svg">
<path d="M2.5 17.0596H12.5" stroke="#7A7777" stroke-width="1.5" stroke-miterlimit="10" stroke-linecap="round" stroke-linejoin="round"/>
<path d="M4.71997 13.5H10.28C12.06 13.5 12.5 13.94 12.5 15.7V19.81C12.5 21.57 12.06 22.01 10.28 22.01H4.71997C2.93997 22.01 2.5 21.57 2.5 19.81V15.7C2.5 13.94 2.93997 13.5 4.71997 13.5Z" stroke="#7A7777" stroke-width="1.5" stroke-linecap="round" stroke-linejoin="round"/>
<path d="M22.5 15C22.5 18.87 19.37 22 15.5 22L16.55 20.25" stroke="#7A7777" stroke-width="1.5" stroke-linecap="round" stroke-linejoin="round"/>
<path d="M2.5 9C2.5 5.13 5.63 2 9.5 2L8.45001 3.75" stroke="#7A7777" stroke-width="1.5" stroke-linecap="round" stroke-linejoin="round"/>
<path d="M19 11C21.4853 11 23.5 8.98528 23.5 6.5C23.5 4.01472 21.4853 2 19 2C16.5147 2 14.5 4.01472 14.5 6.5C14.5 8.98528 16.5147 11 19 11Z" stroke="#7A7777" stroke-width="1.5" stroke-linecap="round" stroke-linejoin="round"/>
</svg>
