<svg width="25" height="24" viewBox="0 0 25 24" fill="none" xmlns="http://www.w3.org/2000/svg">
<path d="M12.5 15.7V15.81C12.5 16.09 12.28 16.31 12 16.31H3C2.72 16.31 2.5 16.09 2.5 15.81V15.7C2.5 13.94 2.94 13.5 4.72 13.5H10.28C12.06 13.5 12.5 13.94 12.5 15.7Z" fill="#42A6ED"/>
<path d="M3 17.3096C2.72 17.3096 2.5 17.5296 2.5 17.8096V18.8096V19.7996C2.5 21.5596 2.94 21.9996 4.72 21.9996H10.28C12.06 21.9996 12.5 21.5596 12.5 19.7996V18.8096V17.8096C12.5 17.5296 12.28 17.3096 12 17.3096H3Z" fill="#42A6ED"/>
<path d="M22.5 15C22.5 18.87 19.37 22 15.5 22L16.55 20.25" stroke="#42A6ED" stroke-width="1.5" stroke-linecap="round" stroke-linejoin="round"/>
<path d="M2.5 9C2.5 5.13 5.63 2 9.5 2L8.45 3.75" stroke="#42A6ED" stroke-width="1.5" stroke-linecap="round" stroke-linejoin="round"/>
<path d="M19 11C21.4853 11 23.5 8.98528 23.5 6.5C23.5 4.01472 21.4853 2 19 2C16.5147 2 14.5 4.01472 14.5 6.5C14.5 8.98528 16.5147 11 19 11Z" fill="#42A6ED"/>
</svg>
